#usda 1.0
(
    defaultPrim = "tray"
    metersPerUnit = 0.001
    upAxis = "Z"
)

def Xform "tray"
{
    def Mesh "mesh"
    {
        int[] faceVertexCounts = [3, 3, 3, 3, 3, 3, 3, 3, 3, 3, 3, 3, 3, 3, 3, 3, 3, 3, 3, 3, 3, 3, 3, 3, 3, 3, 3, 3, 3, 3, 3, 3, 3, 3, 3, 3, 3, 3, 3, 3, 3, 3, 3, 3, 3, 3, 3, 3, 3, 3, 3, 3]
        int[] faceVertexIndices = [0, 1, 2, 2, 1, 3, 4, 5, 6, 6, 5, 7, 6, 7, 8, 8, 7, 9, 8, 9, 10, 10, 9, 11, 10, 11, 4, 4, 11, 5, 12, 13, 5, 5, 13, 7, 14, 12, 11, 11, 12, 5, 15, 14, 9, 9, 14, 11, 13, 15, 7, 7, 15, 9, 16, 14, 17, 17, 14, 15, 17, 15, 18, 18, 15, 13, 18, 13, 19, 19, 13, 12, 19, 12, 16, 16, 12, 14, 20, 21, 22, 22, 21, 23, 23, 18, 22, 22, 18, 19, 21, 17, 23, 23, 17, 18, 22, 19, 20, 20, 19, 16, 20, 16, 21, 21, 16, 17, 6, 24, 4, 4, 24, 25, 3, 1, 24, 24, 1, 25, 26, 27, 2, 2, 27, 0, 8, 10, 26, 26, 10, 27, 26, 24, 8, 8, 24, 6, 25, 27, 4, 4, 27, 10, 27, 25, 0, 0, 25, 1, 2, 3, 26, 26, 3, 24]
        normal3f[] normals = [(0.0, -6.411621188197347e-17, -1.0), (0.0, -6.411621188197347e-17, -1.0), (0.0, -6.411621188197347e-17, -1.0), (0.0, -6.411621188197347e-17, -1.0), (0.0, -6.411621188197347e-17, -1.0), (0.0, -6.411621188197347e-17, -1.0), (0.0, 0.0, -1.0), (0.0, 0.0, -1.0), (0.0, 0.0, -1.0), (0.0, 0.0, -1.0), (0.0, 0.0, -1.0), (0.0, 0.0, -1.0), (-0.0, -0.0, -1.0), (-0.0, -0.0, -1.0), (-0.0, -0.0, -1.0), (0.0, -0.0, -1.0), (0.0, -0.0, -1.0), (0.0, -0.0, -1.0), (-0.0, 0.0, -1.0), (-0.0, 0.0, -1.0), (-0.0, 0.0, -1.0), (-0.0, 0.0, -1.0), (-0.0, 0.0, -1.0), (-0.0, 0.0, -1.0), (0.0, 0.0, -1.0), (0.0, 0.0, -1.0), (0.0, 0.0, -1.0), (0.0, 0.0, -1.0), (0.0, 0.0, -1.0), (0.0, 0.0, -1.0), (1.0, 0.0, 0.0), (1.0, 0.0, 0.0), (1.0, 0.0, 0.0), (1.0, 0.0, 0.0), (1.0, 0.0, 0.0), (1.0, 0.0, 0.0), (-0.0, 1.0, 0.0), (-0.0, 1.0, 0.0), (-0.0, 1.0, 0.0), (0.0, 1.0, 0.0), (0.0, 1.0, 0.0), (0.0, 1.0, 0.0), (-1.0, 0.0, 0.0), (-1.0, 0.0, 0.0), (-1.0, 0.0, 0.0), (-1.0, 0.0, 0.0), (-1.0, 0.0, 0.0), (-1.0, 0.0, 0.0), (-0.0, -1.0, -0.0), (-0.0, -1.0, -0.0), (-0.0, -1.0, -0.0), (0.0, -1.0, 0.0), (0.0, -1.0, 0.0), (0.0, -1.0, 0.0), (0.0, 0.0, 1.0), (0.0, 0.0, 1.0), (0.0, 0.0, 1.0), (0.0, 0.0, 1.0), (0.0, 0.0, 1.0), (0.0, 0.0, 1.0), (-0.0, 0.0, 1.0), (-0.0, 0.0, 1.0), (-0.0, 0.0, 1.0), (0.0, 0.0, 1.0), (0.0, 0.0, 1.0), (0.0, 0.0, 1.0), (-0.0, 0.0, 1.0), (-0.0, 0.0, 1.0), (-0.0, 0.0, 1.0), (-0.0, 0.0, 1.0), (-0.0, 0.0, 1.0), (-0.0, 0.0, 1.0), (0.0, -0.0, 1.0), (0.0, -0.0, 1.0), (0.0, -0.0, 1.0), (0.0, -0.0, 1.0), (0.0, -0.0, 1.0), (0.0, -0.0, 1.0), (-0.0, 0.0, 1.0), (-0.0, 0.0, 1.0), (-0.0, 0.0, 1.0), (0.0, 0.0, 1.0), (0.0, 0.0, 1.0), (0.0, 0.0, 1.0), (-0.553479015827179, 0.0, 0.8328631520271301), (-0.553479015827179, 0.0, 0.8328631520271301), (-0.553479015827179, 0.0, 0.8328631520271301), (-0.553479015827179, 0.0, 0.8328631520271301), (-0.553479015827179, 0.0, 0.8328631520271301), (-0.553479015827179, 0.0, 0.8328631520271301), (-0.0, 0.553479015827179, 0.8328631520271301), (-0.0, 0.553479015827179, 0.8328631520271301), (-0.0, 0.553479015827179, 0.8328631520271301), (0.0, 0.553479015827179, 0.8328631520271301), (0.0, 0.553479015827179, 0.8328631520271301), (0.0, 0.553479015827179, 0.8328631520271301), (0.0, -0.553479015827179, 0.8328631520271301), (0.0, -0.553479015827179, 0.8328631520271301), (0.0, -0.553479015827179, 0.8328631520271301), (0.0, -0.553479015827179, 0.8328631520271301), (0.0, -0.553479015827179, 0.8328631520271301), (0.0, -0.553479015827179, 0.8328631520271301), (0.553479015827179, 0.0, 0.8328631520271301), (0.553479015827179, 0.0, 0.8328631520271301), (0.553479015827179, 0.0, 0.8328631520271301), (0.553479015827179, 0.0, 0.8328631520271301), (0.553479015827179, 0.0, 0.8328631520271301), (0.553479015827179, 0.0, 0.8328631520271301), (-1.0, 0.0, 0.0), (-1.0, 0.0, 0.0), (-1.0, 0.0, 0.0), (-1.0, 0.0, 0.0), (-1.0, 0.0, 0.0), (-1.0, 0.0, 0.0), (0.553479015827179, -5.340002748934489e-17, -0.8328630924224854), (0.553479015827179, -5.340002748934489e-17, -0.8328630924224854), (0.553479015827179, -5.340002748934489e-17, -0.8328630924224854), (0.553479015827179, 0.0, -0.8328630924224854), (0.553479015827179, 0.0, -0.8328630924224854), (0.553479015827179, 0.0, -0.8328630924224854), (-0.553479015827179, 0.0, -0.8328630924224854), (-0.553479015827179, 0.0, -0.8328630924224854), (-0.553479015827179, 0.0, -0.8328630924224854), (-0.553479015827179, -5.340002748934489e-17, -0.8328630924224854), (-0.553479015827179, -5.340002748934489e-17, -0.8328630924224854), (-0.553479015827179, -5.340002748934489e-17, -0.8328630924224854), (1.0, 0.0, 0.0), (1.0, 0.0, 0.0), (1.0, 0.0, 0.0), (1.0, -0.0, 0.0), (1.0, -0.0, 0.0), (1.0, -0.0, 0.0), (-0.0, 1.0, 0.0), (-0.0, 1.0, 0.0), (-0.0, 1.0, 0.0), (0.0, 1.0, 0.0), (0.0, 1.0, 0.0), (0.0, 1.0, 0.0), (-0.0, -1.0, -0.0), (-0.0, -1.0, -0.0), (-0.0, -1.0, -0.0), (0.0, -1.0, 0.0), (0.0, -1.0, 0.0), (0.0, -1.0, 0.0), (0.0, 0.553479015827179, -0.8328630924224854), (0.0, 0.553479015827179, -0.8328630924224854), (0.0, 0.553479015827179, -0.8328630924224854), (0.0, 0.553479015827179, -0.8328630924224854), (0.0, 0.553479015827179, -0.8328630924224854), (0.0, 0.553479015827179, -0.8328630924224854), (0.0, -0.553479015827179, -0.8328630924224854), (0.0, -0.553479015827179, -0.8328630924224854), (0.0, -0.553479015827179, -0.8328630924224854), (0.0, -0.553479015827179, -0.8328630924224854), (0.0, -0.553479015827179, -0.8328630924224854), (0.0, -0.553479015827179, -0.8328630924224854)] (
            interpolation = "faceVarying"
        )
        point3f[] points = [(60.96113586425781, 159.0388641357422, 4.553649124439119e-15), (159.0388641357422, 159.0388641357422, 4.553649124439119e-15), (60.96113586425781, 60.96113586425781, 1.0842021724855044e-14), (159.0388641357422, 60.96113586425781, 1.0842021724855044e-14), (210.0, 210.0, 6.938893903907228e-15), (220.0, 220.0, 6.938893903907228e-15), (210.0, 9.999998092651367, 6.938893903907228e-15), (220.0, 0.0, 6.938893903907228e-15), (9.999998092651367, 9.999998092651367, 6.938893903907228e-15), (0.0, 0.0, 6.938893903907228e-15), (9.999998092651367, 210.0, 6.938893903907228e-15), (0.0, 220.0, 6.938893903907228e-15), (220.0, 220.0, 50.0), (220.0, 0.0, 50.0), (0.0, 220.0, 50.0), (0.0, 0.0, 50.0), (3.789760112762451, 216.21023559570312, 50.0), (3.789760112762451, 3.789760112762451, 50.0), (216.21023559570312, 3.789760112762451, 50.0), (216.21023559570312, 216.21023559570312, 50.0), (70.0, 150.0, 6.0), (70.0, 70.0, 6.0), (150.0, 150.0, 6.0), (150.0, 70.0, 6.0), (210.0, 9.999998092651367, 33.866214752197266), (210.0, 210.0, 33.866214752197266), (9.999998092651367, 9.999998092651367, 33.866214752197266), (9.999998092651367, 210.0, 33.866214752197266)]
        uniform token subdivisionScheme = "none"
    }
}
